<svg id="Layer_1" data-name="Layer 1" xmlns="http://www.w3.org/2000/svg" xmlns:xlink="http://www.w3.org/1999/xlink" viewBox="0 0 1080 1080"><defs><style>.cls-1{fill:url(#linear-gradient);}</style><linearGradient id="linear-gradient" x1="540" y1="893.22" x2="540" y2="186.78" gradientUnits="userSpaceOnUse"><stop offset="0" stop-color="#fe0293"/><stop offset="1" stop-color="#ff7c22"/></linearGradient></defs><title>Logo</title><path class="cls-1" d="M402.56,707.3a20.65,20.65,0,0,1-3.91-13.52,19.82,19.82,0,0,1,2.71-8.41C505.47,498.09,534.27,448,538,443c.12-.17,7.36-9.77,7.36-9.77a30.13,30.13,0,0,1,12.91-5.4c10.68-1.74,64.26,2.07,102.36,46.3C697.36,516.73,704.1,577.28,687,621.7a120.93,120.93,0,0,1-15,27.63c-26.37,36.87-70.3,106.23-148.38,243.89ZM703.21,186.78A32,32,0,0,0,690,191.59a33.63,33.63,0,0,0-11.42,13.22c-5.94,11.55-43.31,75.82-94.91,164.59-2.36,5.5-7.54,15.18-18,21-6.88,3.85-13.49,4.42-26.43,5.41a207,207,0,0,1-31.24,0l.6,15c10.77-.06,27.29-.11,47.46,0,69.56.37,80,2.08,106.33,0,25.31-2,52.24-3.91,83.49-15.62,8.16-3.06,42.82-16.55,84.1-52.86,58.79-51.71,90.12-113.73,106.38-155ZM143.66,403.34A262.93,262.93,0,0,1,344.29,604,263,263,0,0,1,544.93,403.34,263,263,0,0,1,344.29,202.7,263,263,0,0,1,143.66,403.34Z"/></svg>