<svg id="Layer_1" data-name="Layer 1" xmlns="http://www.w3.org/2000/svg" xmlns:xlink="http://www.w3.org/1999/xlink" viewBox="0 0 1920 1080"><defs><style>.cls-1{fill:url(#linear-gradient);}.cls-2{font-size:280px;fill:#fff;font-family:FranklinGothic-Demi, Franklin Gothic Demi;}.cls-3{letter-spacing:-0.03em;}.cls-4{letter-spacing:0.01em;}</style><linearGradient id="linear-gradient" x1="269.21" y1="729.97" x2="269.21" y2="350.03" gradientUnits="userSpaceOnUse"><stop offset="0" stop-color="#fe0293"/><stop offset="1" stop-color="#ff7c22"/></linearGradient></defs><title>Logo</title><path class="cls-1" d="M195.29,630a11,11,0,0,1-2.1-7.27,10.55,10.55,0,0,1,1.45-4.52c56-100.73,71.49-127.69,73.5-130.37l4-5.25a16.21,16.21,0,0,1,6.95-2.91c5.74-.93,34.56,1.12,55.05,24.91,19.74,22.92,23.37,55.48,14.17,79.37a65,65,0,0,1-8.08,14.86C326,618.63,302.38,655.94,260.39,730ZM357,350a17.19,17.19,0,0,0-7.11,2.58,18.12,18.12,0,0,0-6.14,7.11c-3.19,6.21-23.29,40.78-51,88.52a23.23,23.23,0,0,1-9.7,11.31c-3.7,2.07-7.25,2.38-14.21,2.91a110.46,110.46,0,0,1-16.8,0c.11,2.69.21,5.38.32,8.08,5.79,0,14.67-.06,25.52,0,37.42.2,43,1.11,57.19,0,13.62-1.08,28.1-2.1,44.91-8.4,4.39-1.65,23-8.9,45.23-28.43,31.62-27.82,48.47-61.17,57.22-83.37ZM56,466.5a142.31,142.31,0,0,1,69.76,38.15A142.31,142.31,0,0,1,164,574.41,141.42,141.42,0,0,1,271.86,466.5,141.42,141.42,0,0,1,164,358.59a142.31,142.31,0,0,1-38.15,69.76A142.31,142.31,0,0,1,56,466.5Z"/><text class="cls-2" transform="translate(521.79 632.4)">Ox<tspan class="cls-3" x="317.19" y="0">V</tspan><tspan x="464.98" y="0">en</tspan><tspan class="cls-4" x="768.36" y="0">t</tspan><tspan x="869.26" y="0">a AI</tspan></text></svg>